<svg width="24" height="24" viewBox="0 0 24 24" fill="none" xmlns="http://www.w3.org/2000/svg">
<path d="M14 8.8C14 8.7 14.0333 8.60417 14.1 8.5125C14.1667 8.42083 14.2417 8.35833 14.325 8.325C14.825 8.14167 15.3375 8 15.8625 7.9C16.3875 7.8 16.9333 7.75 17.5 7.75C17.8667 7.75 18.225 7.77083 18.575 7.8125C18.925 7.85417 19.2667 7.91667 19.6 8C19.7 8.03333 19.7917 8.09583 19.875 8.1875C19.9583 8.27917 20 8.38333 20 8.5C20 8.68333 19.9375 8.825 19.8125 8.925C19.6875 9.025 19.5333 9.05 19.35 9C19.0667 8.91667 18.7708 8.85417 18.4625 8.8125C18.1542 8.77083 17.8333 8.75 17.5 8.75C17.0167 8.75 16.55 8.79583 16.1 8.8875C15.65 8.97917 15.2083 9.11667 14.775 9.3C14.5417 9.38333 14.3542 9.37917 14.2125 9.2875C14.0708 9.19583 14 9.03333 14 8.8ZM14 14.3C14 14.2 14.0333 14.1 14.1 14C14.1667 13.9 14.2417 13.8333 14.325 13.8C14.825 13.6167 15.3375 13.4792 15.8625 13.3875C16.3875 13.2958 16.9333 13.25 17.5 13.25C17.8667 13.25 18.225 13.2708 18.575 13.3125C18.925 13.3542 19.2667 13.4167 19.6 13.5C19.7 13.5333 19.7917 13.5958 19.875 13.6875C19.9583 13.7792 20 13.8833 20 14C20 14.1833 19.9375 14.325 19.8125 14.425C19.6875 14.525 19.5333 14.55 19.35 14.5C19.0667 14.4167 18.7708 14.3542 18.4625 14.3125C18.1542 14.2708 17.8333 14.25 17.5 14.25C17.0167 14.25 16.55 14.2917 16.1 14.375C15.65 14.4583 15.2083 14.5917 14.775 14.775C14.5417 14.8583 14.3542 14.8583 14.2125 14.775C14.0708 14.6917 14 14.5333 14 14.3ZM14 11.55C14 11.45 14.0333 11.3542 14.1 11.2625C14.1667 11.1708 14.2417 11.1083 14.325 11.075C14.825 10.8917 15.3375 10.75 15.8625 10.65C16.3875 10.55 16.9333 10.5 17.5 10.5C17.8667 10.5 18.225 10.5208 18.575 10.5625C18.925 10.6042 19.2667 10.6667 19.6 10.75C19.7 10.7833 19.7917 10.8458 19.875 10.9375C19.9583 11.0292 20 11.1333 20 11.25C20 11.4333 19.9375 11.575 19.8125 11.675C19.6875 11.775 19.5333 11.8 19.35 11.75C19.0667 11.6667 18.7708 11.6042 18.4625 11.5625C18.1542 11.5208 17.8333 11.5 17.5 11.5C17.0167 11.5 16.55 11.5458 16.1 11.6375C15.65 11.7292 15.2083 11.8667 14.775 12.05C14.5417 12.1333 14.3542 12.1292 14.2125 12.0375C14.0708 11.9458 14 11.7833 14 11.55ZM6.2 16.5C7.1 16.5 7.97083 16.6042 8.8125 16.8125C9.65417 17.0208 10.4833 17.3333 11.3 17.75V7.075C10.55 6.575 9.7375 6.1875 8.8625 5.9125C7.9875 5.6375 7.1 5.5 6.2 5.5C5.56667 5.5 4.94583 5.57917 4.3375 5.7375C3.72917 5.89583 3.11667 6.09167 2.5 6.325V17.175C3.01667 16.9417 3.60417 16.7708 4.2625 16.6625C4.92083 16.5542 5.56667 16.5 6.2 16.5ZM12.8 17.75C13.6333 17.3333 14.45 17.0208 15.25 16.8125C16.05 16.6042 16.9 16.5 17.8 16.5C18.4333 16.5 19.0875 16.55 19.7625 16.65C20.4375 16.75 21.0167 16.8833 21.5 17.05V6.325C20.9333 6.04167 20.3333 5.83333 19.7 5.7C19.0667 5.56667 18.4333 5.5 17.8 5.5C16.9 5.5 16.0292 5.6375 15.1875 5.9125C14.3458 6.1875 13.55 6.575 12.8 7.075V17.75ZM12.05 19.725C11.9167 19.725 11.7958 19.7125 11.6875 19.6875C11.5792 19.6625 11.4833 19.6167 11.4 19.55C10.6167 19.0667 9.78333 18.6917 8.9 18.425C8.01667 18.1583 7.11667 18.025 6.2 18.025C5.58333 18.025 4.98333 18.1 4.4 18.25C3.81667 18.4 3.23333 18.5833 2.65 18.8C2.26667 18.9833 1.89583 18.9583 1.5375 18.725C1.17917 18.4917 1 18.1583 1 17.725V6.15C1 5.9 1.05833 5.67083 1.175 5.4625C1.29167 5.25417 1.46667 5.09167 1.7 4.975C2.4 4.64167 3.12917 4.39583 3.8875 4.2375C4.64583 4.07917 5.41667 4 6.2 4C7.25 4 8.27083 4.14167 9.2625 4.425C10.2542 4.70833 11.1833 5.14167 12.05 5.725C12.9 5.14167 13.8125 4.70833 14.7875 4.425C15.7625 4.14167 16.7667 4 17.8 4C18.5833 4 19.35 4.07917 20.1 4.2375C20.85 4.39583 21.575 4.64167 22.275 4.975C22.5083 5.09167 22.6875 5.25417 22.8125 5.4625C22.9375 5.67083 23 5.9 23 6.15V17.725C23 18.1917 22.8125 18.5458 22.4375 18.7875C22.0625 19.0292 21.6917 19.0333 21.325 18.8C20.7583 18.5667 20.1833 18.3792 19.6 18.2375C19.0167 18.0958 18.4167 18.025 17.8 18.025C16.9 18.025 16.0167 18.1583 15.15 18.425C14.2833 18.6917 13.4667 19.0667 12.7 19.55C12.6167 19.6167 12.5208 19.6625 12.4125 19.6875C12.3042 19.7125 12.1833 19.725 12.05 19.725Z" fill="url(#paint0_linear_3_43)"/>
<defs>
<linearGradient id="paint0_linear_3_43" x1="12" y1="4" x2="12" y2="19.725" gradientUnits="userSpaceOnUse">
<stop stop-color="#99F9F9"/>
<stop offset="1" stop-color="#0085FF"/>
</linearGradient>
</defs>
</svg>
