<svg width="406" height="32" viewBox="0 0 406 32" fill="none" xmlns="http://www.w3.org/2000/svg">
<path d="M14.078 31.42C11.418 31.42 9.122 30.986 7.19 30.118C5.286 29.222 3.802 27.934 2.738 26.254C1.702 24.546 1.128 22.474 1.016 20.038C0.987999 18.834 0.973999 17.56 0.973999 16.216C0.973999 14.844 0.987999 13.542 1.016 12.31C1.128 9.93 1.716 7.914 2.78 6.262C3.844 4.61 5.342 3.35001 7.274 2.482C9.206 1.614 11.474 1.18 14.078 1.18C16.178 1.18 18.04 1.446 19.664 1.978C21.288 2.482 22.646 3.168 23.738 4.036C24.858 4.90401 25.698 5.85601 26.258 6.89201C26.846 7.92801 27.154 8.95001 27.182 9.958C27.21 10.21 27.126 10.42 26.93 10.588C26.762 10.756 26.552 10.84 26.3 10.84H20.168C19.86 10.84 19.622 10.798 19.454 10.714C19.314 10.602 19.188 10.448 19.076 10.252C18.88 9.83201 18.586 9.398 18.194 8.95C17.83 8.474 17.312 8.068 16.64 7.732C15.996 7.396 15.142 7.228 14.078 7.228C12.482 7.228 11.222 7.648 10.298 8.488C9.402 9.328 8.912 10.672 8.828 12.52C8.744 14.928 8.744 17.364 8.828 19.828C8.912 21.788 9.43 23.202 10.382 24.07C11.334 24.938 12.594 25.372 14.162 25.372C15.226 25.372 16.164 25.19 16.976 24.826C17.816 24.462 18.474 23.902 18.95 23.146C19.426 22.362 19.664 21.368 19.664 20.164V19.366H15.716C15.408 19.366 15.142 19.268 14.918 19.072C14.722 18.848 14.624 18.582 14.624 18.274V15.166C14.624 14.858 14.722 14.606 14.918 14.41C15.142 14.186 15.408 14.074 15.716 14.074H26.3C26.608 14.074 26.86 14.186 27.056 14.41C27.252 14.606 27.35 14.858 27.35 15.166V19.954C27.35 22.362 26.804 24.42 25.712 26.128C24.62 27.836 23.066 29.152 21.05 30.076C19.062 30.972 16.738 31.42 14.078 31.42Z" fill="black"/>
<path d="M39.7285 31.42C38.1325 31.42 36.7045 31.056 35.4445 30.328C34.2125 29.6 33.2465 28.536 32.5465 27.136C31.8465 25.708 31.4965 23.972 31.4965 21.928V10.21C31.4965 9.902 31.5945 9.65 31.7905 9.45401C31.9865 9.258 32.2385 9.16 32.5465 9.16H37.7965C38.1045 9.16 38.3565 9.258 38.5525 9.45401C38.7485 9.65 38.8465 9.902 38.8465 10.21V21.676C38.8465 24.42 40.0785 25.792 42.5425 25.792C43.6905 25.792 44.6005 25.442 45.2725 24.742C45.9725 24.014 46.3225 22.992 46.3225 21.676V10.21C46.3225 9.902 46.4205 9.65 46.6165 9.45401C46.8125 9.258 47.0645 9.16 47.3725 9.16H52.6225C52.9305 9.16 53.1825 9.258 53.3785 9.45401C53.5745 9.65 53.6725 9.902 53.6725 10.21V29.95C53.6725 30.258 53.5745 30.51 53.3785 30.706C53.1825 30.902 52.9305 31 52.6225 31H47.7505C47.4705 31 47.2185 30.902 46.9945 30.706C46.7985 30.51 46.7005 30.258 46.7005 29.95V28.354C45.9725 29.362 45.0205 30.132 43.8445 30.664C42.6965 31.168 41.3245 31.42 39.7285 31.42Z" fill="black"/>
<path d="M59.6628 31C59.3548 31 59.1028 30.902 58.9068 30.706C58.7108 30.51 58.6128 30.258 58.6128 29.95V10.21C58.6128 9.902 58.7108 9.65 58.9068 9.45401C59.1028 9.258 59.3548 9.16 59.6628 9.16H64.6188C64.8988 9.16 65.1368 9.258 65.3328 9.45401C65.5568 9.65 65.6688 9.902 65.6688 10.21V29.95C65.6688 30.258 65.5568 30.51 65.3328 30.706C65.1368 30.902 64.8988 31 64.6188 31H59.6628ZM59.6208 6.01C59.3128 6.01 59.0608 5.912 58.8648 5.716C58.6688 5.52 58.5708 5.268 58.5708 4.96001V1.222C58.5708 0.914004 58.6688 0.662004 58.8648 0.466003C59.0608 0.242004 59.3128 0.130005 59.6208 0.130005H64.6188C64.9268 0.130005 65.1788 0.242004 65.3748 0.466003C65.5988 0.662004 65.7108 0.914004 65.7108 1.222V4.96001C65.7108 5.268 65.5988 5.52 65.3748 5.716C65.1788 5.912 64.9268 6.01 64.6188 6.01H59.6208Z" fill="black"/>
<path d="M71.6393 31C71.3313 31 71.0793 30.902 70.8833 30.706C70.6873 30.51 70.5893 30.258 70.5893 29.95V2.23C70.5893 1.922 70.6873 1.67 70.8833 1.47401C71.0793 1.278 71.3313 1.18 71.6393 1.18H76.5953C76.9033 1.18 77.1553 1.278 77.3513 1.47401C77.5473 1.67 77.6453 1.922 77.6453 2.23V29.95C77.6453 30.258 77.5473 30.51 77.3513 30.706C77.1553 30.902 76.9033 31 76.5953 31H71.6393Z" fill="black"/>
<path d="M83.6569 31C83.3489 31 83.0969 30.902 82.9009 30.706C82.7049 30.51 82.6069 30.258 82.6069 29.95V2.23C82.6069 1.922 82.7049 1.67 82.9009 1.47401C83.0969 1.278 83.3489 1.18 83.6569 1.18H89.0329C89.3409 1.18 89.5929 1.278 89.7889 1.47401C89.9849 1.67 90.0829 1.922 90.0829 2.23V11.596C90.8389 10.728 91.7629 10.042 92.8549 9.538C93.9749 9.006 95.2629 8.74 96.7189 8.74C98.3429 8.74 99.7849 9.104 101.045 9.83201C102.333 10.56 103.341 11.638 104.069 13.066C104.797 14.466 105.161 16.188 105.161 18.232V29.95C105.161 30.258 105.063 30.51 104.867 30.706C104.671 30.902 104.419 31 104.111 31H98.6929C98.4129 31 98.1609 30.902 97.9369 30.706C97.7409 30.51 97.6429 30.258 97.6429 29.95V18.484C97.6429 17.168 97.3209 16.16 96.6769 15.46C96.0609 14.732 95.1369 14.368 93.9049 14.368C92.7569 14.368 91.8329 14.732 91.1329 15.46C90.4329 16.16 90.0829 17.168 90.0829 18.484V29.95C90.0829 30.258 89.9849 30.51 89.7889 30.706C89.5929 30.902 89.3409 31 89.0329 31H83.6569Z" fill="black"/>
<path d="M120.003 31.42C116.699 31.42 114.067 30.524 112.107 28.732C110.147 26.94 109.125 24.28 109.041 20.752C109.041 20.556 109.041 20.304 109.041 19.996C109.041 19.688 109.041 19.45 109.041 19.282C109.125 17.07 109.615 15.18 110.511 13.612C111.435 12.016 112.695 10.812 114.291 10C115.915 9.16 117.805 8.74 119.961 8.74C122.425 8.74 124.455 9.23 126.051 10.21C127.675 11.19 128.893 12.52 129.705 14.2C130.517 15.88 130.923 17.798 130.923 19.954V20.962C130.923 21.27 130.811 21.522 130.587 21.718C130.391 21.914 130.153 22.012 129.873 22.012H116.433C116.433 22.04 116.433 22.082 116.433 22.138C116.433 22.194 116.433 22.25 116.433 22.306C116.461 23.118 116.601 23.86 116.853 24.532C117.105 25.204 117.497 25.736 118.029 26.128C118.561 26.52 119.205 26.716 119.961 26.716C120.521 26.716 120.983 26.632 121.347 26.464C121.739 26.268 122.061 26.058 122.313 25.834C122.565 25.582 122.761 25.372 122.901 25.204C123.153 24.924 123.349 24.756 123.489 24.7C123.657 24.616 123.909 24.574 124.245 24.574H129.453C129.733 24.574 129.957 24.658 130.125 24.826C130.321 24.966 130.405 25.176 130.377 25.456C130.349 25.932 130.111 26.506 129.663 27.178C129.215 27.85 128.557 28.522 127.689 29.194C126.849 29.838 125.785 30.37 124.497 30.79C123.209 31.21 121.711 31.42 120.003 31.42ZM116.433 17.854H123.531V17.77C123.531 16.874 123.391 16.09 123.111 15.418C122.859 14.746 122.453 14.228 121.893 13.864C121.361 13.5 120.717 13.318 119.961 13.318C119.205 13.318 118.561 13.5 118.029 13.864C117.525 14.228 117.133 14.746 116.853 15.418C116.573 16.09 116.433 16.874 116.433 17.77V17.854Z" fill="black"/>
<path d="M135.911 31C135.603 31 135.351 30.902 135.155 30.706C134.959 30.51 134.861 30.258 134.861 29.95V10.21C134.861 9.93 134.959 9.692 135.155 9.496C135.351 9.272 135.603 9.16 135.911 9.16H140.741C141.049 9.16 141.301 9.272 141.497 9.496C141.693 9.692 141.791 9.93 141.791 10.21V11.89C142.547 11.022 143.443 10.35 144.479 9.874C145.543 9.398 146.733 9.16 148.049 9.16H149.897C150.177 9.16 150.415 9.258 150.611 9.45401C150.835 9.65 150.947 9.902 150.947 10.21V14.536C150.947 14.816 150.835 15.068 150.611 15.292C150.415 15.488 150.177 15.586 149.897 15.586H145.823C144.675 15.586 143.779 15.908 143.135 16.552C142.519 17.168 142.211 18.05 142.211 19.198V29.95C142.211 30.258 142.099 30.51 141.875 30.706C141.679 30.902 141.427 31 141.119 31H135.911Z" fill="black"/>
<path d="M154.983 31C154.675 31 154.423 30.902 154.227 30.706C154.031 30.51 153.933 30.258 153.933 29.95V10.21C153.933 9.902 154.031 9.65 154.227 9.45401C154.423 9.258 154.675 9.16 154.983 9.16H159.561C159.869 9.16 160.121 9.258 160.317 9.45401C160.513 9.65 160.611 9.902 160.611 10.21V11.638C161.171 10.882 161.955 10.224 162.963 9.66401C163.971 9.076 165.161 8.768 166.533 8.74C169.753 8.68401 171.965 9.90201 173.169 12.394C173.813 11.33 174.737 10.462 175.941 9.79001C177.145 9.09 178.461 8.74 179.889 8.74C181.345 8.74 182.647 9.076 183.795 9.748C184.971 10.392 185.909 11.4 186.609 12.772C187.309 14.116 187.659 15.866 187.659 18.022V29.95C187.659 30.258 187.547 30.51 187.323 30.706C187.127 30.902 186.889 31 186.609 31H181.737C181.429 31 181.163 30.902 180.939 30.706C180.743 30.51 180.645 30.258 180.645 29.95V18.316C180.645 17.336 180.505 16.566 180.225 16.006C179.945 15.418 179.567 14.998 179.091 14.746C178.615 14.494 178.069 14.368 177.453 14.368C176.949 14.368 176.445 14.494 175.941 14.746C175.465 14.998 175.073 15.418 174.765 16.006C174.485 16.566 174.345 17.336 174.345 18.316V29.95C174.345 30.258 174.247 30.51 174.051 30.706C173.855 30.902 173.603 31 173.295 31H168.423C168.115 31 167.863 30.902 167.667 30.706C167.471 30.51 167.373 30.258 167.373 29.95V18.316C167.373 17.336 167.219 16.566 166.911 16.006C166.603 15.418 166.211 14.998 165.735 14.746C165.259 14.494 164.727 14.368 164.139 14.368C163.635 14.368 163.131 14.494 162.627 14.746C162.151 14.998 161.759 15.418 161.451 16.006C161.171 16.566 161.031 17.322 161.031 18.274V29.95C161.031 30.258 160.919 30.51 160.695 30.706C160.499 30.902 160.247 31 159.939 31H154.983Z" fill="black"/>
<path d="M202.445 31.42C199.141 31.42 196.509 30.524 194.549 28.732C192.589 26.94 191.567 24.28 191.483 20.752C191.483 20.556 191.483 20.304 191.483 19.996C191.483 19.688 191.483 19.45 191.483 19.282C191.567 17.07 192.057 15.18 192.953 13.612C193.877 12.016 195.137 10.812 196.733 10C198.357 9.16 200.247 8.74 202.403 8.74C204.867 8.74 206.897 9.23 208.493 10.21C210.117 11.19 211.335 12.52 212.147 14.2C212.959 15.88 213.365 17.798 213.365 19.954V20.962C213.365 21.27 213.253 21.522 213.029 21.718C212.833 21.914 212.595 22.012 212.315 22.012H198.875C198.875 22.04 198.875 22.082 198.875 22.138C198.875 22.194 198.875 22.25 198.875 22.306C198.903 23.118 199.043 23.86 199.295 24.532C199.547 25.204 199.939 25.736 200.471 26.128C201.003 26.52 201.647 26.716 202.403 26.716C202.963 26.716 203.425 26.632 203.789 26.464C204.181 26.268 204.503 26.058 204.755 25.834C205.007 25.582 205.203 25.372 205.343 25.204C205.595 24.924 205.791 24.756 205.931 24.7C206.099 24.616 206.351 24.574 206.687 24.574H211.895C212.175 24.574 212.399 24.658 212.567 24.826C212.763 24.966 212.847 25.176 212.819 25.456C212.791 25.932 212.553 26.506 212.105 27.178C211.657 27.85 210.999 28.522 210.131 29.194C209.291 29.838 208.227 30.37 206.939 30.79C205.651 31.21 204.153 31.42 202.445 31.42ZM198.875 17.854H205.973V17.77C205.973 16.874 205.833 16.09 205.553 15.418C205.301 14.746 204.895 14.228 204.335 13.864C203.803 13.5 203.159 13.318 202.403 13.318C201.647 13.318 201.003 13.5 200.471 13.864C199.967 14.228 199.575 14.746 199.295 15.418C199.015 16.09 198.875 16.874 198.875 17.77V17.854Z" fill="black"/>
<path d="M227.756 31C227.448 31 227.196 30.902 227 30.706C226.804 30.51 226.706 30.258 226.706 29.95V2.65C226.706 2.342 226.804 2.09 227 1.894C227.196 1.698 227.448 1.6 227.756 1.6H240.566C242.974 1.6 244.948 1.936 246.488 2.608C248.028 3.28 249.162 4.246 249.89 5.506C250.646 6.738 251.024 8.208 251.024 9.916C251.024 10.924 250.828 11.82 250.436 12.604C250.072 13.36 249.61 13.99 249.05 14.494C248.518 14.998 248.014 15.362 247.538 15.586C248.602 16.09 249.54 16.916 250.352 18.064C251.192 19.212 251.612 20.556 251.612 22.096C251.612 23.944 251.192 25.54 250.352 26.884C249.54 28.2 248.336 29.222 246.74 29.95C245.172 30.65 243.24 31 240.944 31H227.756ZM234.224 25.54H240.104C241.308 25.54 242.218 25.19 242.834 24.49C243.45 23.79 243.758 22.992 243.758 22.096C243.758 21.116 243.436 20.29 242.792 19.618C242.176 18.946 241.28 18.61 240.104 18.61H234.224V25.54ZM234.224 13.276H239.726C240.874 13.276 241.728 12.982 242.288 12.394C242.876 11.806 243.17 11.05 243.17 10.126C243.17 9.23 242.876 8.502 242.288 7.942C241.728 7.354 240.874 7.06 239.726 7.06H234.224V13.276Z" fill="black"/>
<path d="M262.368 31.42C260.856 31.42 259.498 31.14 258.294 30.58C257.118 29.992 256.18 29.208 255.48 28.228C254.78 27.248 254.43 26.142 254.43 24.91C254.43 22.922 255.242 21.354 256.866 20.206C258.49 19.03 260.646 18.232 263.334 17.812L268.584 17.014V16.426C268.584 15.418 268.374 14.648 267.954 14.116C267.534 13.584 266.764 13.318 265.644 13.318C264.86 13.318 264.216 13.472 263.712 13.78C263.236 14.088 262.858 14.508 262.578 15.04C262.326 15.404 261.976 15.586 261.528 15.586H256.824C256.516 15.586 256.278 15.502 256.11 15.334C255.942 15.138 255.872 14.914 255.9 14.662C255.9 14.158 256.082 13.584 256.446 12.94C256.838 12.268 257.426 11.61 258.21 10.966C258.994 10.322 260.002 9.79 261.234 9.37C262.466 8.95 263.95 8.74 265.686 8.74C267.506 8.74 269.06 8.95 270.348 9.37C271.636 9.79 272.672 10.378 273.456 11.134C274.268 11.89 274.87 12.786 275.262 13.822C275.654 14.83 275.85 15.95 275.85 17.182V29.95C275.85 30.258 275.738 30.51 275.514 30.706C275.318 30.902 275.08 31 274.8 31H269.928C269.62 31 269.368 30.902 269.172 30.706C268.976 30.51 268.878 30.258 268.878 29.95V28.48C268.514 29.012 268.024 29.502 267.408 29.95C266.792 30.398 266.064 30.748 265.224 31C264.412 31.28 263.46 31.42 262.368 31.42ZM264.342 26.632C265.154 26.632 265.882 26.464 266.526 26.128C267.198 25.764 267.716 25.218 268.08 24.49C268.472 23.734 268.668 22.796 268.668 21.676V21.088L265.098 21.718C263.782 21.942 262.816 22.292 262.2 22.768C261.612 23.216 261.318 23.748 261.318 24.364C261.318 24.84 261.458 25.246 261.738 25.582C262.018 25.918 262.382 26.184 262.83 26.38C263.278 26.548 263.782 26.632 264.342 26.632Z" fill="black"/>
<path d="M289.577 31.42C287.757 31.42 286.203 31.224 284.915 30.832C283.655 30.412 282.619 29.908 281.807 29.32C281.023 28.732 280.435 28.13 280.043 27.514C279.651 26.87 279.441 26.324 279.413 25.876C279.385 25.568 279.483 25.316 279.707 25.12C279.931 24.896 280.169 24.784 280.421 24.784H285.209C285.293 24.784 285.363 24.798 285.419 24.826C285.475 24.854 285.559 24.91 285.671 24.994C286.035 25.19 286.399 25.442 286.763 25.75C287.127 26.03 287.547 26.282 288.023 26.506C288.499 26.73 289.073 26.842 289.745 26.842C290.529 26.842 291.187 26.688 291.719 26.38C292.251 26.072 292.517 25.61 292.517 24.994C292.517 24.546 292.391 24.182 292.139 23.902C291.887 23.594 291.369 23.3 290.585 23.02C289.829 22.74 288.681 22.46 287.141 22.18C285.685 21.844 284.411 21.41 283.319 20.878C282.227 20.318 281.387 19.604 280.799 18.736C280.211 17.84 279.917 16.762 279.917 15.502C279.917 14.382 280.281 13.304 281.009 12.268C281.737 11.232 282.801 10.392 284.201 9.748C285.601 9.076 287.323 8.74 289.367 8.74C290.991 8.74 292.391 8.936 293.567 9.328C294.771 9.692 295.779 10.168 296.591 10.756C297.431 11.344 298.061 11.946 298.481 12.562C298.901 13.178 299.125 13.738 299.153 14.242C299.181 14.522 299.097 14.774 298.901 14.998C298.705 15.194 298.481 15.292 298.229 15.292H293.861C293.749 15.292 293.637 15.278 293.525 15.25C293.413 15.194 293.315 15.138 293.231 15.082C292.895 14.914 292.559 14.69 292.223 14.41C291.887 14.13 291.495 13.878 291.047 13.654C290.599 13.43 290.039 13.318 289.367 13.318C288.611 13.318 288.023 13.486 287.603 13.822C287.183 14.158 286.973 14.592 286.973 15.124C286.973 15.488 287.085 15.824 287.309 16.132C287.561 16.44 288.051 16.72 288.779 16.972C289.535 17.224 290.697 17.504 292.265 17.812C294.197 18.12 295.737 18.624 296.885 19.324C298.033 19.996 298.845 20.794 299.321 21.718C299.797 22.614 300.035 23.566 300.035 24.574C300.035 25.918 299.629 27.108 298.817 28.144C298.033 29.18 296.857 29.992 295.289 30.58C293.721 31.14 291.817 31.42 289.577 31.42Z" fill="black"/>
<path d="M314.853 31C313.061 31 311.507 30.72 310.191 30.16C308.903 29.572 307.909 28.676 307.209 27.472C306.509 26.24 306.159 24.658 306.159 22.726V14.662H302.883C302.575 14.662 302.309 14.564 302.085 14.368C301.889 14.172 301.791 13.92 301.791 13.612V10.21C301.791 9.902 301.889 9.65 302.085 9.45401C302.309 9.258 302.575 9.16 302.883 9.16H306.159V2.23C306.159 1.922 306.257 1.67 306.453 1.47401C306.677 1.278 306.929 1.18 307.209 1.18H312.081C312.389 1.18 312.641 1.278 312.837 1.47401C313.033 1.67 313.131 1.922 313.131 2.23V9.16H318.381C318.689 9.16 318.941 9.258 319.137 9.45401C319.333 9.65 319.431 9.902 319.431 10.21V13.612C319.431 13.92 319.333 14.172 319.137 14.368C318.941 14.564 318.689 14.662 318.381 14.662H313.131V22.138C313.131 23.09 313.313 23.846 313.677 24.406C314.041 24.966 314.657 25.246 315.525 25.246H318.759C319.067 25.246 319.319 25.344 319.515 25.54C319.711 25.736 319.809 25.988 319.809 26.296V29.95C319.809 30.258 319.711 30.51 319.515 30.706C319.319 30.902 319.067 31 318.759 31H314.853Z" fill="black"/>
<path d="M324.337 31C324.029 31 323.777 30.902 323.581 30.706C323.385 30.51 323.287 30.258 323.287 29.95V10.21C323.287 9.902 323.385 9.65 323.581 9.45401C323.777 9.258 324.029 9.16 324.337 9.16H329.293C329.573 9.16 329.811 9.258 330.007 9.45401C330.231 9.65 330.343 9.902 330.343 10.21V29.95C330.343 30.258 330.231 30.51 330.007 30.706C329.811 30.902 329.573 31 329.293 31H324.337ZM324.295 6.01C323.987 6.01 323.735 5.912 323.539 5.716C323.343 5.52 323.245 5.268 323.245 4.96001V1.222C323.245 0.914004 323.343 0.662004 323.539 0.466003C323.735 0.242004 323.987 0.130005 324.295 0.130005H329.293C329.601 0.130005 329.853 0.242004 330.049 0.466003C330.273 0.662004 330.385 0.914004 330.385 1.222V4.96001C330.385 5.268 330.273 5.52 330.049 5.716C329.853 5.912 329.601 6.01 329.293 6.01H324.295Z" fill="black"/>
<path d="M343.411 31.42C342.067 31.42 340.849 31.21 339.757 30.79C338.693 30.342 337.769 29.698 336.985 28.858C336.229 27.99 335.641 26.954 335.221 25.75C334.801 24.518 334.563 23.118 334.507 21.55C334.479 20.99 334.465 20.5 334.465 20.08C334.465 19.632 334.479 19.142 334.507 18.61C334.563 17.098 334.801 15.74 335.221 14.536C335.641 13.332 336.229 12.296 336.985 11.428C337.741 10.56 338.665 9.90201 339.757 9.45401C340.849 8.978 342.067 8.74 343.411 8.74C344.811 8.74 346.015 8.978 347.023 9.45401C348.031 9.90201 348.885 10.49 349.585 11.218V2.23C349.585 1.922 349.683 1.67 349.879 1.47401C350.075 1.278 350.327 1.18 350.635 1.18H355.759C356.039 1.18 356.277 1.278 356.473 1.47401C356.697 1.67 356.809 1.922 356.809 2.23V29.95C356.809 30.258 356.697 30.51 356.473 30.706C356.277 30.902 356.039 31 355.759 31H351.013C350.705 31 350.453 30.902 350.257 30.706C350.061 30.51 349.963 30.258 349.963 29.95V28.606C349.291 29.418 348.423 30.09 347.359 30.622C346.295 31.154 344.979 31.42 343.411 31.42ZM345.679 25.792C346.631 25.792 347.373 25.596 347.905 25.204C348.465 24.784 348.871 24.252 349.123 23.608C349.403 22.964 349.557 22.264 349.585 21.508C349.613 20.948 349.627 20.416 349.627 19.912C349.627 19.408 349.613 18.89 349.585 18.358C349.557 17.658 349.403 17.014 349.123 16.426C348.843 15.81 348.423 15.32 347.863 14.956C347.303 14.564 346.575 14.368 345.679 14.368C344.755 14.368 344.013 14.564 343.453 14.956C342.921 15.348 342.543 15.88 342.319 16.552C342.095 17.224 341.955 17.966 341.899 18.778C341.815 19.646 341.815 20.514 341.899 21.382C341.955 22.194 342.095 22.936 342.319 23.608C342.543 24.28 342.921 24.812 343.453 25.204C344.013 25.596 344.755 25.792 345.679 25.792Z" fill="black"/>
<path d="M368.311 31.42C366.799 31.42 365.441 31.14 364.237 30.58C363.061 29.992 362.123 29.208 361.423 28.228C360.723 27.248 360.373 26.142 360.373 24.91C360.373 22.922 361.185 21.354 362.809 20.206C364.433 19.03 366.589 18.232 369.277 17.812L374.527 17.014V16.426C374.527 15.418 374.317 14.648 373.897 14.116C373.477 13.584 372.707 13.318 371.587 13.318C370.803 13.318 370.159 13.472 369.655 13.78C369.179 14.088 368.801 14.508 368.521 15.04C368.269 15.404 367.919 15.586 367.471 15.586H362.767C362.459 15.586 362.221 15.502 362.053 15.334C361.885 15.138 361.815 14.914 361.843 14.662C361.843 14.158 362.025 13.584 362.389 12.94C362.781 12.268 363.369 11.61 364.153 10.966C364.937 10.322 365.945 9.79 367.177 9.37C368.409 8.95 369.893 8.74 371.629 8.74C373.449 8.74 375.003 8.95 376.291 9.37C377.579 9.79 378.615 10.378 379.399 11.134C380.211 11.89 380.813 12.786 381.205 13.822C381.597 14.83 381.793 15.95 381.793 17.182V29.95C381.793 30.258 381.681 30.51 381.457 30.706C381.261 30.902 381.023 31 380.743 31H375.871C375.563 31 375.311 30.902 375.115 30.706C374.919 30.51 374.821 30.258 374.821 29.95V28.48C374.457 29.012 373.967 29.502 373.351 29.95C372.735 30.398 372.007 30.748 371.167 31C370.355 31.28 369.403 31.42 368.311 31.42ZM370.285 26.632C371.097 26.632 371.825 26.464 372.469 26.128C373.141 25.764 373.659 25.218 374.023 24.49C374.415 23.734 374.611 22.796 374.611 21.676V21.088L371.041 21.718C369.725 21.942 368.759 22.292 368.143 22.768C367.555 23.216 367.261 23.748 367.261 24.364C367.261 24.84 367.401 25.246 367.681 25.582C367.961 25.918 368.325 26.184 368.773 26.38C369.221 26.548 369.725 26.632 370.285 26.632Z" fill="black"/>
<path d="M395.521 31.42C393.701 31.42 392.147 31.224 390.859 30.832C389.599 30.412 388.563 29.908 387.751 29.32C386.967 28.732 386.379 28.13 385.987 27.514C385.595 26.87 385.385 26.324 385.357 25.876C385.329 25.568 385.427 25.316 385.651 25.12C385.875 24.896 386.113 24.784 386.365 24.784H391.153C391.237 24.784 391.307 24.798 391.363 24.826C391.419 24.854 391.503 24.91 391.615 24.994C391.979 25.19 392.343 25.442 392.707 25.75C393.071 26.03 393.491 26.282 393.967 26.506C394.443 26.73 395.017 26.842 395.689 26.842C396.473 26.842 397.131 26.688 397.663 26.38C398.195 26.072 398.461 25.61 398.461 24.994C398.461 24.546 398.335 24.182 398.083 23.902C397.831 23.594 397.313 23.3 396.529 23.02C395.773 22.74 394.625 22.46 393.085 22.18C391.629 21.844 390.355 21.41 389.263 20.878C388.171 20.318 387.331 19.604 386.743 18.736C386.155 17.84 385.861 16.762 385.861 15.502C385.861 14.382 386.225 13.304 386.953 12.268C387.681 11.232 388.745 10.392 390.145 9.748C391.545 9.076 393.267 8.74 395.311 8.74C396.935 8.74 398.335 8.936 399.511 9.328C400.715 9.692 401.723 10.168 402.535 10.756C403.375 11.344 404.005 11.946 404.425 12.562C404.845 13.178 405.069 13.738 405.097 14.242C405.125 14.522 405.041 14.774 404.845 14.998C404.649 15.194 404.425 15.292 404.173 15.292H399.805C399.693 15.292 399.581 15.278 399.469 15.25C399.357 15.194 399.259 15.138 399.175 15.082C398.839 14.914 398.503 14.69 398.167 14.41C397.831 14.13 397.439 13.878 396.991 13.654C396.543 13.43 395.983 13.318 395.311 13.318C394.555 13.318 393.967 13.486 393.547 13.822C393.127 14.158 392.917 14.592 392.917 15.124C392.917 15.488 393.029 15.824 393.253 16.132C393.505 16.44 393.995 16.72 394.723 16.972C395.479 17.224 396.641 17.504 398.209 17.812C400.141 18.12 401.681 18.624 402.829 19.324C403.977 19.996 404.789 20.794 405.265 21.718C405.741 22.614 405.979 23.566 405.979 24.574C405.979 25.918 405.573 27.108 404.761 28.144C403.977 29.18 402.801 29.992 401.233 30.58C399.665 31.14 397.761 31.42 395.521 31.42Z" fill="black"/>
</svg>
