<svg width="439" height="41" viewBox="0 0 439 41" fill="none" xmlns="http://www.w3.org/2000/svg">
<path d="M13.104 31.42C10.444 31.42 8.148 30.986 6.216 30.118C4.312 29.222 2.828 27.934 1.764 26.254C0.728 24.546 0.154 22.474 0.0419999 20.038C0.014 18.834 0 17.56 0 16.216C0 14.844 0.014 13.542 0.0419999 12.31C0.154 9.93 0.742 7.914 1.806 6.262C2.87 4.61 4.368 3.35001 6.3 2.482C8.232 1.614 10.5 1.18 13.104 1.18C15.204 1.18 17.066 1.446 18.69 1.978C20.314 2.482 21.672 3.168 22.764 4.036C23.884 4.90401 24.724 5.85601 25.284 6.89201C25.872 7.92801 26.18 8.95001 26.208 9.958C26.236 10.21 26.152 10.42 25.956 10.588C25.788 10.756 25.578 10.84 25.326 10.84H19.194C18.886 10.84 18.648 10.798 18.48 10.714C18.34 10.602 18.214 10.448 18.102 10.252C17.906 9.83201 17.612 9.398 17.22 8.95C16.856 8.474 16.338 8.068 15.666 7.732C15.022 7.396 14.168 7.228 13.104 7.228C11.508 7.228 10.248 7.648 9.324 8.488C8.428 9.328 7.938 10.672 7.854 12.52C7.77 14.928 7.77 17.364 7.854 19.828C7.938 21.788 8.456 23.202 9.408 24.07C10.36 24.938 11.62 25.372 13.188 25.372C14.252 25.372 15.19 25.19 16.002 24.826C16.842 24.462 17.5 23.902 17.976 23.146C18.452 22.362 18.69 21.368 18.69 20.164V19.366H14.742C14.434 19.366 14.168 19.268 13.944 19.072C13.748 18.848 13.65 18.582 13.65 18.274V15.166C13.65 14.858 13.748 14.606 13.944 14.41C14.168 14.186 14.434 14.074 14.742 14.074H25.326C25.634 14.074 25.886 14.186 26.082 14.41C26.278 14.606 26.376 14.858 26.376 15.166V19.954C26.376 22.362 25.83 24.42 24.738 26.128C23.646 27.836 22.092 29.152 20.076 30.076C18.088 30.972 15.764 31.42 13.104 31.42Z" fill="#141414"/>
<path d="M38.7545 31.42C37.1585 31.42 35.7305 31.056 34.4705 30.328C33.2385 29.6 32.2725 28.536 31.5725 27.136C30.8725 25.708 30.5225 23.972 30.5225 21.928V10.21C30.5225 9.902 30.6205 9.65 30.8165 9.45401C31.0125 9.258 31.2645 9.16 31.5725 9.16H36.8225C37.1305 9.16 37.3825 9.258 37.5785 9.45401C37.7745 9.65 37.8725 9.902 37.8725 10.21V21.676C37.8725 24.42 39.1045 25.792 41.5685 25.792C42.7165 25.792 43.6265 25.442 44.2985 24.742C44.9985 24.014 45.3485 22.992 45.3485 21.676V10.21C45.3485 9.902 45.4465 9.65 45.6425 9.45401C45.8385 9.258 46.0905 9.16 46.3985 9.16H51.6485C51.9565 9.16 52.2085 9.258 52.4045 9.45401C52.6005 9.65 52.6985 9.902 52.6985 10.21V29.95C52.6985 30.258 52.6005 30.51 52.4045 30.706C52.2085 30.902 51.9565 31 51.6485 31H46.7765C46.4965 31 46.2445 30.902 46.0205 30.706C45.8245 30.51 45.7265 30.258 45.7265 29.95V28.354C44.9985 29.362 44.0465 30.132 42.8705 30.664C41.7225 31.168 40.3505 31.42 38.7545 31.42Z" fill="#141414"/>
<path d="M58.6888 31C58.3808 31 58.1288 30.902 57.9328 30.706C57.7368 30.51 57.6388 30.258 57.6388 29.95V10.21C57.6388 9.902 57.7368 9.65 57.9328 9.45401C58.1288 9.258 58.3808 9.16 58.6888 9.16H63.6448C63.9248 9.16 64.1628 9.258 64.3588 9.45401C64.5828 9.65 64.6948 9.902 64.6948 10.21V29.95C64.6948 30.258 64.5828 30.51 64.3588 30.706C64.1628 30.902 63.9248 31 63.6448 31H58.6888ZM58.6468 6.01C58.3388 6.01 58.0868 5.912 57.8908 5.716C57.6948 5.52 57.5968 5.268 57.5968 4.96001V1.222C57.5968 0.914004 57.6948 0.662004 57.8908 0.466003C58.0868 0.242004 58.3388 0.130005 58.6468 0.130005H63.6448C63.9528 0.130005 64.2048 0.242004 64.4008 0.466003C64.6248 0.662004 64.7368 0.914004 64.7368 1.222V4.96001C64.7368 5.268 64.6248 5.52 64.4008 5.716C64.2048 5.912 63.9528 6.01 63.6448 6.01H58.6468Z" fill="#141414"/>
<path d="M70.6653 31C70.3573 31 70.1053 30.902 69.9093 30.706C69.7133 30.51 69.6153 30.258 69.6153 29.95V2.23C69.6153 1.922 69.7133 1.67 69.9093 1.47401C70.1053 1.278 70.3573 1.18 70.6653 1.18H75.6213C75.9293 1.18 76.1813 1.278 76.3773 1.47401C76.5733 1.67 76.6713 1.922 76.6713 2.23V29.95C76.6713 30.258 76.5733 30.51 76.3773 30.706C76.1813 30.902 75.9293 31 75.6213 31H70.6653Z" fill="#141414"/>
<path d="M82.6829 31C82.3749 31 82.1229 30.902 81.9269 30.706C81.7309 30.51 81.6329 30.258 81.6329 29.95V2.23C81.6329 1.922 81.7309 1.67 81.9269 1.47401C82.1229 1.278 82.3749 1.18 82.6829 1.18H88.0589C88.3669 1.18 88.6189 1.278 88.8149 1.47401C89.0109 1.67 89.1089 1.922 89.1089 2.23V11.596C89.8649 10.728 90.7889 10.042 91.8809 9.538C93.0009 9.006 94.2889 8.74 95.7449 8.74C97.3689 8.74 98.8109 9.104 100.071 9.83201C101.359 10.56 102.367 11.638 103.095 13.066C103.823 14.466 104.187 16.188 104.187 18.232V29.95C104.187 30.258 104.089 30.51 103.893 30.706C103.697 30.902 103.445 31 103.137 31H97.7189C97.4389 31 97.1869 30.902 96.9629 30.706C96.7669 30.51 96.6689 30.258 96.6689 29.95V18.484C96.6689 17.168 96.3469 16.16 95.7029 15.46C95.0869 14.732 94.1629 14.368 92.9309 14.368C91.7829 14.368 90.8589 14.732 90.1589 15.46C89.4589 16.16 89.1089 17.168 89.1089 18.484V29.95C89.1089 30.258 89.0109 30.51 88.8149 30.706C88.6189 30.902 88.3669 31 88.0589 31H82.6829Z" fill="#141414"/>
<path d="M119.029 31.42C115.725 31.42 113.093 30.524 111.133 28.732C109.173 26.94 108.151 24.28 108.067 20.752C108.067 20.556 108.067 20.304 108.067 19.996C108.067 19.688 108.067 19.45 108.067 19.282C108.151 17.07 108.641 15.18 109.537 13.612C110.461 12.016 111.721 10.812 113.317 10C114.941 9.16 116.831 8.74 118.987 8.74C121.451 8.74 123.481 9.23 125.077 10.21C126.701 11.19 127.919 12.52 128.731 14.2C129.543 15.88 129.949 17.798 129.949 19.954V20.962C129.949 21.27 129.837 21.522 129.613 21.718C129.417 21.914 129.179 22.012 128.899 22.012H115.459C115.459 22.04 115.459 22.082 115.459 22.138C115.459 22.194 115.459 22.25 115.459 22.306C115.487 23.118 115.627 23.86 115.879 24.532C116.131 25.204 116.523 25.736 117.055 26.128C117.587 26.52 118.231 26.716 118.987 26.716C119.547 26.716 120.009 26.632 120.373 26.464C120.765 26.268 121.087 26.058 121.339 25.834C121.591 25.582 121.787 25.372 121.927 25.204C122.179 24.924 122.375 24.756 122.515 24.7C122.683 24.616 122.935 24.574 123.271 24.574H128.479C128.759 24.574 128.983 24.658 129.151 24.826C129.347 24.966 129.431 25.176 129.403 25.456C129.375 25.932 129.137 26.506 128.689 27.178C128.241 27.85 127.583 28.522 126.715 29.194C125.875 29.838 124.811 30.37 123.523 30.79C122.235 31.21 120.737 31.42 119.029 31.42ZM115.459 17.854H122.557V17.77C122.557 16.874 122.417 16.09 122.137 15.418C121.885 14.746 121.479 14.228 120.919 13.864C120.387 13.5 119.743 13.318 118.987 13.318C118.231 13.318 117.587 13.5 117.055 13.864C116.551 14.228 116.159 14.746 115.879 15.418C115.599 16.09 115.459 16.874 115.459 17.77V17.854Z" fill="#141414"/>
<path d="M134.937 31C134.629 31 134.377 30.902 134.181 30.706C133.985 30.51 133.887 30.258 133.887 29.95V10.21C133.887 9.93 133.985 9.692 134.181 9.496C134.377 9.272 134.629 9.16 134.937 9.16H139.767C140.075 9.16 140.327 9.272 140.523 9.496C140.719 9.692 140.817 9.93 140.817 10.21V11.89C141.573 11.022 142.469 10.35 143.505 9.874C144.569 9.398 145.759 9.16 147.075 9.16H148.923C149.203 9.16 149.441 9.258 149.637 9.45401C149.861 9.65 149.973 9.902 149.973 10.21V14.536C149.973 14.816 149.861 15.068 149.637 15.292C149.441 15.488 149.203 15.586 148.923 15.586H144.849C143.701 15.586 142.805 15.908 142.161 16.552C141.545 17.168 141.237 18.05 141.237 19.198V29.95C141.237 30.258 141.125 30.51 140.901 30.706C140.705 30.902 140.453 31 140.145 31H134.937Z" fill="#141414"/>
<path d="M154.009 31C153.701 31 153.449 30.902 153.253 30.706C153.057 30.51 152.959 30.258 152.959 29.95V10.21C152.959 9.902 153.057 9.65 153.253 9.45401C153.449 9.258 153.701 9.16 154.009 9.16H158.587C158.895 9.16 159.147 9.258 159.343 9.45401C159.539 9.65 159.637 9.902 159.637 10.21V11.638C160.197 10.882 160.981 10.224 161.989 9.66401C162.997 9.076 164.187 8.768 165.559 8.74C168.779 8.68401 170.991 9.90201 172.195 12.394C172.839 11.33 173.763 10.462 174.967 9.79001C176.171 9.09 177.487 8.74 178.915 8.74C180.371 8.74 181.673 9.076 182.821 9.748C183.997 10.392 184.935 11.4 185.635 12.772C186.335 14.116 186.685 15.866 186.685 18.022V29.95C186.685 30.258 186.573 30.51 186.349 30.706C186.153 30.902 185.915 31 185.635 31H180.763C180.455 31 180.189 30.902 179.965 30.706C179.769 30.51 179.671 30.258 179.671 29.95V18.316C179.671 17.336 179.531 16.566 179.251 16.006C178.971 15.418 178.593 14.998 178.117 14.746C177.641 14.494 177.095 14.368 176.479 14.368C175.975 14.368 175.471 14.494 174.967 14.746C174.491 14.998 174.099 15.418 173.791 16.006C173.511 16.566 173.371 17.336 173.371 18.316V29.95C173.371 30.258 173.273 30.51 173.077 30.706C172.881 30.902 172.629 31 172.321 31H167.449C167.141 31 166.889 30.902 166.693 30.706C166.497 30.51 166.399 30.258 166.399 29.95V18.316C166.399 17.336 166.245 16.566 165.937 16.006C165.629 15.418 165.237 14.998 164.761 14.746C164.285 14.494 163.753 14.368 163.165 14.368C162.661 14.368 162.157 14.494 161.653 14.746C161.177 14.998 160.785 15.418 160.477 16.006C160.197 16.566 160.057 17.322 160.057 18.274V29.95C160.057 30.258 159.945 30.51 159.721 30.706C159.525 30.902 159.273 31 158.965 31H154.009Z" fill="#141414"/>
<path d="M201.471 31.42C198.167 31.42 195.535 30.524 193.575 28.732C191.615 26.94 190.593 24.28 190.509 20.752C190.509 20.556 190.509 20.304 190.509 19.996C190.509 19.688 190.509 19.45 190.509 19.282C190.593 17.07 191.083 15.18 191.979 13.612C192.903 12.016 194.163 10.812 195.759 10C197.383 9.16 199.273 8.74 201.429 8.74C203.893 8.74 205.923 9.23 207.519 10.21C209.143 11.19 210.361 12.52 211.173 14.2C211.985 15.88 212.391 17.798 212.391 19.954V20.962C212.391 21.27 212.279 21.522 212.055 21.718C211.859 21.914 211.621 22.012 211.341 22.012H197.901C197.901 22.04 197.901 22.082 197.901 22.138C197.901 22.194 197.901 22.25 197.901 22.306C197.929 23.118 198.069 23.86 198.321 24.532C198.573 25.204 198.965 25.736 199.497 26.128C200.029 26.52 200.673 26.716 201.429 26.716C201.989 26.716 202.451 26.632 202.815 26.464C203.207 26.268 203.529 26.058 203.781 25.834C204.033 25.582 204.229 25.372 204.369 25.204C204.621 24.924 204.817 24.756 204.957 24.7C205.125 24.616 205.377 24.574 205.713 24.574H210.921C211.201 24.574 211.425 24.658 211.593 24.826C211.789 24.966 211.873 25.176 211.845 25.456C211.817 25.932 211.579 26.506 211.131 27.178C210.683 27.85 210.025 28.522 209.157 29.194C208.317 29.838 207.253 30.37 205.965 30.79C204.677 31.21 203.179 31.42 201.471 31.42ZM197.901 17.854H204.999V17.77C204.999 16.874 204.859 16.09 204.579 15.418C204.327 14.746 203.921 14.228 203.361 13.864C202.829 13.5 202.185 13.318 201.429 13.318C200.673 13.318 200.029 13.5 199.497 13.864C198.993 14.228 198.601 14.746 198.321 15.418C198.041 16.09 197.901 16.874 197.901 17.77V17.854Z" fill="#141414"/>
<path d="M237.87 31.42C235.21 31.42 232.914 30.986 230.982 30.118C229.078 29.222 227.594 27.934 226.53 26.254C225.494 24.546 224.92 22.474 224.808 20.038C224.78 18.834 224.766 17.56 224.766 16.216C224.766 14.844 224.78 13.542 224.808 12.31C224.92 9.93 225.508 7.914 226.572 6.262C227.636 4.61 229.134 3.35001 231.066 2.482C232.998 1.614 235.266 1.18 237.87 1.18C239.97 1.18 241.832 1.446 243.456 1.978C245.08 2.482 246.438 3.168 247.53 4.036C248.65 4.90401 249.49 5.85601 250.05 6.89201C250.638 7.92801 250.946 8.95001 250.974 9.958C251.002 10.21 250.918 10.42 250.722 10.588C250.554 10.756 250.344 10.84 250.092 10.84H243.96C243.652 10.84 243.414 10.798 243.246 10.714C243.106 10.602 242.98 10.448 242.868 10.252C242.672 9.83201 242.378 9.398 241.986 8.95C241.622 8.474 241.104 8.068 240.432 7.732C239.788 7.396 238.934 7.228 237.87 7.228C236.274 7.228 235.014 7.648 234.09 8.488C233.194 9.328 232.704 10.672 232.62 12.52C232.536 14.928 232.536 17.364 232.62 19.828C232.704 21.788 233.222 23.202 234.174 24.07C235.126 24.938 236.386 25.372 237.954 25.372C239.018 25.372 239.956 25.19 240.768 24.826C241.608 24.462 242.266 23.902 242.742 23.146C243.218 22.362 243.456 21.368 243.456 20.164V19.366H239.508C239.2 19.366 238.934 19.268 238.71 19.072C238.514 18.848 238.416 18.582 238.416 18.274V15.166C238.416 14.858 238.514 14.606 238.71 14.41C238.934 14.186 239.2 14.074 239.508 14.074H250.092C250.4 14.074 250.652 14.186 250.848 14.41C251.044 14.606 251.142 14.858 251.142 15.166V19.954C251.142 22.362 250.596 24.42 249.504 26.128C248.412 27.836 246.858 29.152 244.842 30.076C242.854 30.972 240.53 31.42 237.87 31.42Z" fill="#141414"/>
<path d="M265.83 31.42C263.478 31.42 261.49 31.042 259.866 30.286C258.27 29.53 257.038 28.452 256.17 27.052C255.33 25.624 254.854 23.93 254.742 21.97C254.714 21.41 254.7 20.78 254.7 20.08C254.7 19.352 254.714 18.722 254.742 18.19C254.854 16.202 255.358 14.508 256.254 13.108C257.15 11.708 258.396 10.63 259.992 9.874C261.616 9.118 263.562 8.74 265.83 8.74C268.126 8.74 270.072 9.118 271.668 9.874C273.292 10.63 274.552 11.708 275.448 13.108C276.344 14.508 276.848 16.202 276.96 18.19C276.988 18.722 277.002 19.352 277.002 20.08C277.002 20.78 276.988 21.41 276.96 21.97C276.848 23.93 276.358 25.624 275.49 27.052C274.65 28.452 273.418 29.53 271.794 30.286C270.198 31.042 268.21 31.42 265.83 31.42ZM265.83 26.296C267.09 26.296 268 25.918 268.56 25.162C269.148 24.406 269.484 23.272 269.568 21.76C269.596 21.34 269.61 20.78 269.61 20.08C269.61 19.38 269.596 18.82 269.568 18.4C269.484 16.916 269.148 15.796 268.56 15.04C268 14.256 267.09 13.864 265.83 13.864C264.598 13.864 263.688 14.256 263.1 15.04C262.512 15.796 262.19 16.916 262.134 18.4C262.106 18.82 262.092 19.38 262.092 20.08C262.092 20.78 262.106 21.34 262.134 21.76C262.19 23.272 262.512 24.406 263.1 25.162C263.688 25.918 264.598 26.296 265.83 26.296Z" fill="#141414"/>
<path d="M282.183 31C281.875 31 281.623 30.902 281.427 30.706C281.231 30.51 281.133 30.258 281.133 29.95V10.21C281.133 9.902 281.231 9.65 281.427 9.45401C281.623 9.258 281.875 9.16 282.183 9.16H287.013C287.321 9.16 287.573 9.258 287.769 9.45401C287.965 9.65 288.063 9.902 288.063 10.21V11.806C288.791 10.938 289.743 10.21 290.919 9.62201C292.095 9.034 293.481 8.74 295.077 8.74C296.701 8.74 298.129 9.104 299.361 9.83201C300.621 10.56 301.601 11.638 302.301 13.066C303.029 14.466 303.393 16.188 303.393 18.232V29.95C303.393 30.258 303.281 30.51 303.057 30.706C302.861 30.902 302.623 31 302.343 31H297.051C296.771 31 296.519 30.902 296.295 30.706C296.099 30.51 296.001 30.258 296.001 29.95V18.484C296.001 17.168 295.679 16.16 295.035 15.46C294.419 14.732 293.495 14.368 292.263 14.368C291.115 14.368 290.191 14.732 289.491 15.46C288.819 16.16 288.483 17.168 288.483 18.484V29.95C288.483 30.258 288.371 30.51 288.147 30.706C287.951 30.902 287.713 31 287.433 31H282.183Z" fill="#141414"/>
<path d="M318.076 40.24C317.348 40.24 316.676 40.114 316.06 39.862C315.444 39.61 315.01 39.316 314.758 38.98C314.506 38.644 314.52 38.35 314.8 38.098L315.556 37.426C315.808 37.202 316.018 37.132 316.186 37.216C316.382 37.3 316.62 37.412 316.9 37.552C317.18 37.72 317.572 37.804 318.076 37.804C318.524 37.804 318.874 37.678 319.126 37.426C319.378 37.174 319.504 36.88 319.504 36.544C319.504 36.18 319.378 35.872 319.126 35.62C318.874 35.396 318.524 35.284 318.076 35.284C317.768 35.284 317.46 35.326 317.152 35.41C316.872 35.522 316.62 35.578 316.396 35.578C316.172 35.606 315.948 35.536 315.724 35.368L314.926 34.528C314.758 34.36 314.674 34.178 314.674 33.982C314.702 33.786 314.8 33.52 314.968 33.184L315.808 31.252C313.316 30.86 311.3 29.852 309.76 28.228C308.22 26.604 307.394 24.462 307.282 21.802C307.254 21.354 307.24 20.794 307.24 20.122C307.24 19.422 307.254 18.848 307.282 18.4C307.366 16.356 307.87 14.62 308.794 13.192C309.718 11.736 310.978 10.63 312.574 9.874C314.198 9.118 316.046 8.74 318.118 8.74C320.05 8.74 321.702 9.02 323.074 9.58C324.446 10.112 325.566 10.784 326.434 11.596C327.302 12.408 327.946 13.248 328.366 14.116C328.814 14.956 329.052 15.698 329.08 16.342C329.108 16.622 329.01 16.874 328.786 17.098C328.562 17.294 328.31 17.392 328.03 17.392H322.696C322.388 17.392 322.15 17.322 321.982 17.182C321.814 17.042 321.66 16.832 321.52 16.552C321.184 15.684 320.75 15.068 320.218 14.704C319.714 14.34 319.056 14.158 318.244 14.158C317.124 14.158 316.256 14.522 315.64 15.25C315.052 15.978 314.73 17.098 314.674 18.61C314.646 19.73 314.646 20.724 314.674 21.592C314.73 23.132 315.052 24.252 315.64 24.952C316.256 25.652 317.124 26.002 318.244 26.002C319.112 26.002 319.798 25.82 320.302 25.456C320.806 25.092 321.212 24.476 321.52 23.608C321.66 23.328 321.814 23.118 321.982 22.978C322.15 22.838 322.388 22.768 322.696 22.768H328.03C328.31 22.768 328.562 22.88 328.786 23.104C329.01 23.3 329.108 23.538 329.08 23.818C329.052 24.378 328.828 25.092 328.408 25.96C328.016 26.8 327.4 27.64 326.56 28.48C325.748 29.292 324.656 29.978 323.284 30.538C321.94 31.098 320.274 31.392 318.286 31.42L317.446 33.1C317.614 33.016 317.838 32.946 318.118 32.89C318.426 32.862 318.664 32.848 318.832 32.848C319.868 32.848 320.68 33.184 321.268 33.856C321.884 34.528 322.192 35.41 322.192 36.502C322.192 37.566 321.828 38.448 321.1 39.148C320.372 39.876 319.364 40.24 318.076 40.24Z" fill="#141414"/>
<path d="M339.406 31.42C337.894 31.42 336.536 31.14 335.332 30.58C334.156 29.992 333.218 29.208 332.518 28.228C331.818 27.248 331.468 26.142 331.468 24.91C331.468 22.922 332.28 21.354 333.904 20.206C335.528 19.03 337.684 18.232 340.372 17.812L345.622 17.014V16.426C345.622 15.418 345.412 14.648 344.992 14.116C344.572 13.584 343.802 13.318 342.682 13.318C341.898 13.318 341.254 13.472 340.75 13.78C340.274 14.088 339.896 14.508 339.616 15.04C339.364 15.404 339.014 15.586 338.566 15.586H333.862C333.554 15.586 333.316 15.502 333.148 15.334C332.98 15.138 332.91 14.914 332.938 14.662C332.938 14.158 333.12 13.584 333.484 12.94C333.876 12.268 334.464 11.61 335.248 10.966C336.032 10.322 337.04 9.79 338.272 9.37C339.504 8.95 340.988 8.74 342.724 8.74C344.544 8.74 346.098 8.95 347.386 9.37C348.674 9.79 349.71 10.378 350.494 11.134C351.306 11.89 351.908 12.786 352.3 13.822C352.692 14.83 352.888 15.95 352.888 17.182V29.95C352.888 30.258 352.776 30.51 352.552 30.706C352.356 30.902 352.118 31 351.838 31H346.966C346.658 31 346.406 30.902 346.21 30.706C346.014 30.51 345.916 30.258 345.916 29.95V28.48C345.552 29.012 345.062 29.502 344.446 29.95C343.83 30.398 343.102 30.748 342.262 31C341.45 31.28 340.498 31.42 339.406 31.42ZM341.38 26.632C342.192 26.632 342.92 26.464 343.564 26.128C344.236 25.764 344.754 25.218 345.118 24.49C345.51 23.734 345.706 22.796 345.706 21.676V21.088L342.136 21.718C340.82 21.942 339.854 22.292 339.238 22.768C338.65 23.216 338.356 23.748 338.356 24.364C338.356 24.84 338.496 25.246 338.776 25.582C339.056 25.918 339.42 26.184 339.868 26.38C340.316 26.548 340.82 26.632 341.38 26.632Z" fill="#141414"/>
<path d="M358.677 31C358.369 31 358.117 30.902 357.921 30.706C357.725 30.51 357.627 30.258 357.627 29.95V2.23C357.627 1.922 357.725 1.67 357.921 1.47401C358.117 1.278 358.369 1.18 358.677 1.18H363.633C363.941 1.18 364.193 1.278 364.389 1.47401C364.585 1.67 364.683 1.922 364.683 2.23V29.95C364.683 30.258 364.585 30.51 364.389 30.706C364.193 30.902 363.941 31 363.633 31H358.677Z" fill="#141414"/>
<path d="M377.415 31C376.995 31 376.687 30.902 376.491 30.706C376.295 30.482 376.127 30.23 375.987 29.95L368.049 10.462C367.993 10.35 367.965 10.224 367.965 10.084C367.965 9.832 368.049 9.622 368.217 9.45401C368.413 9.258 368.651 9.16 368.931 9.16H373.677C374.041 9.16 374.321 9.258 374.517 9.45401C374.713 9.65 374.839 9.846 374.895 10.042L379.641 22.936L384.429 10.042C384.485 9.846 384.611 9.65 384.807 9.45401C385.003 9.258 385.283 9.16 385.647 9.16H390.393C390.645 9.16 390.869 9.258 391.065 9.45401C391.261 9.622 391.359 9.832 391.359 10.084C391.359 10.224 391.331 10.35 391.275 10.462L383.337 29.95C383.225 30.23 383.057 30.482 382.833 30.706C382.637 30.902 382.315 31 381.867 31H377.415Z" fill="#141414"/>
<path d="M403.883 31.42C400.579 31.42 397.947 30.524 395.987 28.732C394.027 26.94 393.005 24.28 392.921 20.752C392.921 20.556 392.921 20.304 392.921 19.996C392.921 19.688 392.921 19.45 392.921 19.282C393.005 17.07 393.495 15.18 394.391 13.612C395.315 12.016 396.575 10.812 398.171 10C399.795 9.16 401.685 8.74 403.841 8.74C406.305 8.74 408.335 9.23 409.931 10.21C411.555 11.19 412.773 12.52 413.585 14.2C414.397 15.88 414.803 17.798 414.803 19.954V20.962C414.803 21.27 414.691 21.522 414.467 21.718C414.271 21.914 414.033 22.012 413.753 22.012H400.313C400.313 22.04 400.313 22.082 400.313 22.138C400.313 22.194 400.313 22.25 400.313 22.306C400.341 23.118 400.481 23.86 400.733 24.532C400.985 25.204 401.377 25.736 401.909 26.128C402.441 26.52 403.085 26.716 403.841 26.716C404.401 26.716 404.863 26.632 405.227 26.464C405.619 26.268 405.941 26.058 406.193 25.834C406.445 25.582 406.641 25.372 406.781 25.204C407.033 24.924 407.229 24.756 407.369 24.7C407.537 24.616 407.789 24.574 408.125 24.574H413.333C413.613 24.574 413.837 24.658 414.005 24.826C414.201 24.966 414.285 25.176 414.257 25.456C414.229 25.932 413.991 26.506 413.543 27.178C413.095 27.85 412.437 28.522 411.569 29.194C410.729 29.838 409.665 30.37 408.377 30.79C407.089 31.21 405.591 31.42 403.883 31.42ZM400.313 17.854H407.411V17.77C407.411 16.874 407.271 16.09 406.991 15.418C406.739 14.746 406.333 14.228 405.773 13.864C405.241 13.5 404.597 13.318 403.841 13.318C403.085 13.318 402.441 13.5 401.909 13.864C401.405 14.228 401.013 14.746 400.733 15.418C400.453 16.09 400.313 16.874 400.313 17.77V17.854Z" fill="#141414"/>
<path d="M427.728 31.42C425.908 31.42 424.354 31.224 423.066 30.832C421.806 30.412 420.77 29.908 419.958 29.32C419.174 28.732 418.586 28.13 418.194 27.514C417.802 26.87 417.592 26.324 417.564 25.876C417.536 25.568 417.634 25.316 417.858 25.12C418.082 24.896 418.32 24.784 418.572 24.784H423.36C423.444 24.784 423.514 24.798 423.57 24.826C423.626 24.854 423.71 24.91 423.822 24.994C424.186 25.19 424.55 25.442 424.914 25.75C425.278 26.03 425.698 26.282 426.174 26.506C426.65 26.73 427.224 26.842 427.896 26.842C428.68 26.842 429.338 26.688 429.87 26.38C430.402 26.072 430.668 25.61 430.668 24.994C430.668 24.546 430.542 24.182 430.29 23.902C430.038 23.594 429.52 23.3 428.736 23.02C427.98 22.74 426.832 22.46 425.292 22.18C423.836 21.844 422.562 21.41 421.47 20.878C420.378 20.318 419.538 19.604 418.95 18.736C418.362 17.84 418.068 16.762 418.068 15.502C418.068 14.382 418.432 13.304 419.16 12.268C419.888 11.232 420.952 10.392 422.352 9.748C423.752 9.076 425.474 8.74 427.518 8.74C429.142 8.74 430.542 8.936 431.718 9.328C432.922 9.692 433.93 10.168 434.742 10.756C435.582 11.344 436.212 11.946 436.632 12.562C437.052 13.178 437.276 13.738 437.304 14.242C437.332 14.522 437.248 14.774 437.052 14.998C436.856 15.194 436.632 15.292 436.38 15.292H432.012C431.9 15.292 431.788 15.278 431.676 15.25C431.564 15.194 431.466 15.138 431.382 15.082C431.046 14.914 430.71 14.69 430.374 14.41C430.038 14.13 429.646 13.878 429.198 13.654C428.75 13.43 428.19 13.318 427.518 13.318C426.762 13.318 426.174 13.486 425.754 13.822C425.334 14.158 425.124 14.592 425.124 15.124C425.124 15.488 425.236 15.824 425.46 16.132C425.712 16.44 426.202 16.72 426.93 16.972C427.686 17.224 428.848 17.504 430.416 17.812C432.348 18.12 433.888 18.624 435.036 19.324C436.184 19.996 436.996 20.794 437.472 21.718C437.948 22.614 438.186 23.566 438.186 24.574C438.186 25.918 437.78 27.108 436.968 28.144C436.184 29.18 435.008 29.992 433.44 30.58C431.872 31.14 429.968 31.42 427.728 31.42Z" fill="#141414"/>
</svg>
