<svg width="24" height="24" viewBox="0 0 24 24" fill="none" xmlns="http://www.w3.org/2000/svg">
<path d="M13.275 22C12.8917 22 12.6125 21.875 12.4375 21.625C12.2625 21.375 12.2417 21.0667 12.375 20.7L16.05 10.95C16.15 10.6833 16.3333 10.4583 16.6 10.275C16.8667 10.0917 17.1417 10 17.425 10C17.7083 10 17.9875 10.0917 18.2625 10.275C18.5375 10.4583 18.725 10.6833 18.825 10.95L22.575 20.6C22.725 20.9833 22.7083 21.3125 22.525 21.5875C22.3417 21.8625 22.0333 22 21.6 22C21.4167 22 21.2417 21.9417 21.075 21.825C20.9083 21.7083 20.7917 21.5583 20.725 21.375L19.9 18.85H15.1L14.15 21.4C14.0833 21.5667 13.9667 21.7083 13.8 21.825C13.6333 21.9417 13.4583 22 13.275 22ZM15.65 17.1H19.2L17.45 12.25H17.4L15.65 17.1ZM7.225 8.55C7.475 8.98333 7.75 9.40417 8.05 9.8125C8.35 10.2208 8.675 10.6417 9.025 11.075C9.775 10.2917 10.4 9.47917 10.9 8.6375C11.4 7.79583 11.825 6.91667 12.175 6H2C1.71667 6 1.47917 5.90417 1.2875 5.7125C1.09583 5.52083 1 5.28333 1 5C1 4.71667 1.09583 4.47917 1.2875 4.2875C1.47917 4.09583 1.71667 4 2 4H8V3C8 2.71667 8.09583 2.47917 8.2875 2.2875C8.47917 2.09583 8.71667 2 9 2C9.28333 2 9.52083 2.09583 9.7125 2.2875C9.90417 2.47917 10 2.71667 10 3V4H16C16.2833 4 16.5208 4.09583 16.7125 4.2875C16.9042 4.47917 17 4.71667 17 5C17 5.28333 16.9042 5.52083 16.7125 5.7125C16.5208 5.90417 16.2833 6 16 6H14.175C13.8083 7.15 13.3208 8.27917 12.7125 9.3875C12.1042 10.4958 11.3583 11.55 10.475 12.55L12.925 15.025L12.175 17.05L9 14L4.675 18.325C4.49167 18.5083 4.26667 18.6 4 18.6C3.73333 18.6 3.50833 18.5 3.325 18.3C3.125 18.1167 3.025 17.8917 3.025 17.625C3.025 17.3583 3.125 17.125 3.325 16.925L7.725 12.525C7.29167 12.0083 6.88333 11.4875 6.5 10.9625C6.11667 10.4375 5.76667 9.9 5.45 9.35C5.25 8.98333 5.23333 8.66667 5.4 8.4C5.56667 8.13333 5.86667 8 6.3 8C6.48333 8 6.6625 8.05417 6.8375 8.1625C7.0125 8.27083 7.14167 8.4 7.225 8.55Z" fill="url(#paint0_linear_3_45)"/>
<defs>
<linearGradient id="paint0_linear_3_45" x1="11.8381" y1="2" x2="11.8381" y2="22" gradientUnits="userSpaceOnUse">
<stop stop-color="#99F9F9"/>
<stop offset="1" stop-color="#0085FF"/>
</linearGradient>
</defs>
</svg>
